<?xml version="1.0" standalone="no"?>
<!DOCTYPE svg PUBLIC "-//W3C//DTD SVG 20010904//EN"
 "http://www.w3.org/TR/2001/REC-SVG-20010904/DTD/svg10.dtd">
<svg version="1.0" xmlns="http://www.w3.org/2000/svg"
 width="500.000000pt" height="500.000000pt" viewBox="0 0 500.000000 500.000000"
 preserveAspectRatio="xMidYMid meet">
<metadata>
Created by potrace 1.14, written by Peter Selinger 2001-2017
</metadata>
<g transform="translate(0.000000,500.000000) scale(0.100000,-0.100000)"
fill="#000000" stroke="none">
<path d="M2356 4235 c-81 -47 -152 -85 -156 -85 -5 0 -10 -4 -12 -8 -3 -7
-169 -105 -268 -158 -21 -11 -46 -26 -54 -33 -9 -8 -16 -10 -16 -5 0 5 -4 4
-8 -1 -10 -15 -92 -67 -92 -59 0 4 -8 0 -17 -8 -16 -13 -35 -25 -143 -86 -19
-10 -85 -48 -146 -84 -61 -36 -117 -68 -125 -71 -8 -4 -32 -18 -54 -32 -22
-14 -56 -33 -75 -43 -19 -9 -40 -22 -47 -28 -6 -6 -25 -17 -42 -24 -17 -7 -32
-15 -33 -19 0 -3 -2 -380 -3 -837 l-1 -830 20 -11 c74 -38 92 -47 96 -52 3 -3
14 -11 25 -17 11 -6 124 -71 250 -144 275 -159 287 -166 345 -198 25 -14 57
-32 72 -41 84 -50 200 -117 248 -144 30 -16 67 -38 82 -49 14 -10 28 -18 31
-18 3 0 35 -18 71 -40 36 -22 70 -40 75 -40 5 0 11 -3 13 -7 6 -15 86 -53 110
-53 42 0 77 55 58 91 -9 16 -84 72 -100 74 -3 0 -50 27 -105 59 -281 166 -334
196 -344 196 -5 0 -11 3 -13 8 -1 4 -23 18 -48 31 -25 14 -63 36 -85 50 -22
14 -42 26 -45 26 -3 0 -16 8 -30 16 -14 9 -79 47 -145 85 -66 37 -123 73 -127
79 -4 5 -8 7 -8 3 0 -6 -89 44 -133 74 -10 7 -21 13 -25 13 -4 1 -25 12 -47
26 -22 14 -56 34 -75 45 l-35 20 0 752 c0 709 1 753 17 758 10 3 18 9 18 14 0
5 9 12 20 15 12 4 66 33 121 66 54 32 104 59 109 59 6 0 10 4 10 9 0 5 8 11
18 14 17 6 93 48 102 57 3 3 16 11 30 18 14 6 52 28 85 47 33 20 68 39 78 42
9 3 17 9 17 14 0 5 4 9 10 9 5 0 50 25 101 55 50 30 93 55 94 55 1 0 69 39
151 87 82 47 167 96 189 108 22 13 61 35 87 50 l48 27 92 -53 c51 -29 104 -60
118 -69 14 -9 50 -30 80 -47 53 -29 117 -66 375 -216 66 -38 135 -77 153 -86
17 -8 32 -19 32 -23 0 -4 4 -8 9 -8 8 0 67 -33 299 -166 173 -100 183 -106
207 -110 14 -2 31 5 47 21 44 43 25 84 -62 132 -47 25 -190 109 -483 279 -32
19 -63 34 -68 34 -5 0 -9 5 -9 10 0 6 -4 10 -10 10 -5 0 -39 18 -75 40 -36 22
-67 40 -70 40 -3 0 -34 18 -70 40 -36 22 -68 40 -70 40 -3 0 -40 22 -83 48
-42 26 -88 53 -102 60 -14 7 -41 22 -60 33 -133 80 -220 129 -229 129 -5 0
-11 4 -13 10 -1 5 -70 -29 -152 -75z"/>
<path d="M2380 3985 c-58 -35 -111 -64 -117 -65 -7 0 -13 -4 -13 -8 0 -4 -15
-15 -32 -23 -18 -9 -94 -51 -168 -95 -75 -44 -142 -84 -150 -88 -8 -4 -24 -12
-35 -19 -11 -7 -54 -32 -95 -55 -41 -24 -88 -51 -105 -61 -16 -10 -57 -33 -90
-51 -33 -18 -64 -36 -70 -40 -5 -5 -33 -21 -60 -37 -28 -15 -74 -41 -102 -58
l-51 -29 1 -700 c2 -691 2 -701 22 -711 11 -5 56 -31 100 -56 97 -56 145 -84
205 -118 25 -13 47 -27 50 -30 3 -3 23 -15 45 -27 22 -12 126 -71 231 -132
105 -60 202 -116 215 -124 13 -7 26 -15 29 -18 3 -3 16 -11 30 -18 14 -7 34
-18 45 -25 11 -7 52 -30 90 -51 39 -22 73 -44 77 -50 4 -6 8 -7 8 -2 0 5 8 2
18 -7 18 -16 29 -17 70 -3 56 19 44 98 -20 130 -18 9 -47 25 -64 35 -27 17
-503 291 -574 332 -14 8 -27 16 -30 19 -3 3 -21 13 -40 23 -60 32 -95 52 -100
57 -3 3 -16 11 -30 18 -14 7 -46 24 -71 40 -26 15 -75 43 -110 64 l-64 36 0
618 1 617 23 16 c13 9 45 28 70 42 25 15 87 50 136 79 50 29 108 62 130 75 22
12 108 62 190 110 83 48 170 98 195 112 25 13 73 41 107 62 34 22 64 36 67 33
3 -3 6 0 6 6 0 7 4 12 9 12 5 0 38 17 72 39 l64 39 40 -23 c47 -25 605 -348
683 -394 29 -17 56 -31 59 -31 4 0 14 -6 22 -14 9 -7 37 -25 62 -39 74 -40 94
-52 99 -57 3 -3 24 -15 48 -27 23 -13 60 -33 82 -45 32 -17 46 -20 68 -12 36
13 56 54 42 86 -11 22 -23 32 -120 86 -25 14 -151 87 -280 162 -129 75 -244
141 -255 147 -92 52 -151 88 -157 97 -4 6 -8 7 -8 2 0 -5 -8 -2 -18 7 -10 10
-22 14 -25 10 -4 -3 -7 -1 -7 5 0 7 -4 12 -10 12 -5 0 -39 18 -75 40 -36 22
-67 40 -69 40 -1 0 -41 22 -87 50 -46 27 -88 50 -94 49 -5 0 -57 -29 -115 -64z"/>
<path d="M2468 3772 c-1 -5 -28 -22 -58 -39 -118 -65 -205 -117 -208 -125 -2
-4 -10 -8 -18 -8 -8 0 -31 -11 -52 -23 -74 -47 -92 -57 -98 -56 -4 0 -10 -3
-13 -8 -3 -5 -42 -29 -86 -53 -44 -24 -81 -47 -83 -52 -2 -4 -8 -8 -12 -8 -5
0 -33 -14 -62 -31 -51 -31 -122 -71 -163 -93 -32 -18 -80 -50 -86 -58 -8 -12
-5 -1111 4 -1125 4 -6 58 -39 120 -74 61 -35 114 -65 117 -68 5 -6 48 -30 105
-59 17 -9 36 -22 43 -29 7 -7 17 -13 22 -13 4 0 37 -17 71 -38 71 -43 147 -87
197 -113 18 -9 38 -22 45 -27 7 -5 32 -21 57 -34 25 -14 73 -42 107 -62 69
-40 91 -44 122 -18 43 34 26 95 -33 125 -34 18 -60 33 -153 89 -34 21 -65 38
-68 38 -2 0 -34 18 -70 40 -36 22 -70 40 -75 40 -6 0 -10 4 -10 8 0 4 -12 13
-27 19 -16 7 -55 28 -88 48 -33 19 -79 45 -102 57 -24 12 -43 26 -43 30 0 4
-5 8 -11 8 -5 0 -53 25 -105 56 -87 51 -94 58 -95 87 -2 113 0 939 3 941 3 4
175 104 228 134 19 11 76 43 125 72 50 29 115 66 145 83 30 17 57 33 60 36 3
3 12 7 20 9 8 2 17 8 18 13 2 5 10 9 17 9 7 0 15 3 17 8 2 4 26 19 53 33 99
53 119 64 133 77 14 13 14 13 157 -68 17 -10 54 -31 83 -49 29 -17 57 -31 62
-31 6 0 10 -4 10 -10 0 -5 4 -10 10 -10 5 0 47 -22 94 -50 47 -27 89 -50 95
-50 6 0 11 -4 11 -10 0 -5 4 -10 9 -10 9 0 35 -15 153 -85 9 -5 39 -22 65 -36
26 -15 74 -42 106 -62 50 -30 64 -34 90 -26 37 10 47 24 47 65 0 25 -7 36 -37
56 -44 30 -212 128 -218 128 -4 0 -132 75 -185 109 -14 8 -28 14 -32 13 -5 -1
-8 2 -8 8 0 5 -7 10 -15 10 -8 0 -15 4 -15 8 0 4 -12 13 -27 19 -27 11 -86 44
-163 91 -19 12 -42 25 -50 29 -8 3 -26 14 -40 23 -23 16 -90 55 -150 86 -28
16 -57 18 -62 6z"/>
<path d="M2470 3501 c-19 -10 -75 -42 -125 -71 -49 -29 -114 -65 -142 -81 -29
-16 -82 -47 -119 -69 -36 -22 -68 -40 -70 -40 -4 0 -147 -82 -174 -100 -8 -5
-31 -19 -51 -29 l-36 -20 0 -434 0 -434 46 -25 c25 -13 165 -94 310 -178 146
-84 279 -160 295 -170 17 -10 45 -26 62 -36 l31 -18 83 47 c45 26 87 47 91 47
5 0 9 4 9 9 0 5 8 11 18 14 9 3 40 20 67 37 28 17 62 36 78 42 15 7 27 16 27
20 0 4 4 8 9 8 9 0 347 193 359 205 4 4 7 199 7 433 1 373 -1 428 -15 438 -8
6 -35 22 -60 36 -25 14 -83 48 -130 75 -142 84 -194 114 -212 120 -10 3 -18 8
-18 12 0 4 -16 13 -35 21 -19 8 -35 17 -35 22 0 4 -5 8 -10 8 -6 0 -40 18 -76
40 -36 22 -70 40 -74 40 -4 0 -13 7 -20 15 -7 9 -15 13 -18 10 -3 -3 -12 1
-21 9 -14 12 -21 12 -51 -3z m105 -182 c39 -23 79 -45 90 -50 11 -5 34 -18 50
-29 17 -11 38 -23 48 -26 9 -4 17 -10 17 -15 0 -5 5 -9 11 -9 6 0 36 -15 66
-32 64 -38 108 -63 178 -103 28 -15 56 -32 63 -38 9 -7 12 -92 12 -361 l0
-351 -37 -20 c-21 -11 -40 -22 -43 -26 -3 -3 -30 -19 -60 -36 -30 -16 -74 -42
-97 -56 -24 -15 -45 -27 -47 -27 -6 0 -129 -73 -136 -80 -3 -3 -24 -14 -47
-25 -24 -11 -43 -23 -43 -26 0 -3 -16 -11 -35 -19 -19 -8 -35 -17 -35 -21 0
-24 -49 -7 -155 54 -66 38 -136 78 -155 89 -271 153 -330 191 -331 211 -1 29
-1 658 0 677 1 15 16 25 111 77 25 13 59 33 75 43 17 11 44 26 60 34 17 9 48
26 70 40 43 27 82 49 130 74 17 9 35 20 40 25 15 13 109 65 120 66 6 1 42 -17
80 -40z"/>
<path d="M2182 2745 c1 -259 -3 -294 -33 -321 -26 -23 -86 -20 -121 6 -33 24
-37 23 -62 -24 -16 -30 -17 -38 -5 -52 35 -43 168 -61 227 -30 50 26 88 81 98
141 3 17 7 479 5 511 -1 8 -21 11 -55 11 l-54 -1 0 -241z"/>
<path d="M2429 2966 c-3 -135 -1 -635 4 -642 4 -8 68 -11 98 -5 4 0 7 64 7
141 0 76 3 143 5 147 4 7 257 10 287 4 3 -1 5 -64 5 -142 0 -77 3 -143 8 -146
17 -10 88 -9 96 1 4 6 7 157 7 336 l-1 325 -55 0 -55 0 0 -135 0 -135 -147 -3
-148 -3 -1 43 c0 24 0 86 0 139 l-1 97 -54 0 c-48 -1 -54 -3 -55 -22z"/>
</g>
</svg>
